<?xml version="1.0" encoding="utf-8"?>
<!-- Generator: Adobe Illustrator 23.0.4, SVG Export Plug-In . SVG Version: 6.00 Build 0)  -->
<svg version="1.1" id="hook" xmlns="http://www.w3.org/2000/svg" xmlns:xlink="http://www.w3.org/1999/xlink" x="0px"
	 y="0px" width="64px" height="64px" viewBox="0 0 1000 1000" enable-background="new 0 0 1000 1000" xml:space="preserve">
<path d="M587.5,24.5c-96.65,0-175,78.35-175,175c0,79.46,52.96,146.55,125.5,167.9c15.7,4.62,32.31,7.1,49.5,7.1
	c17.56,0,34.51-2.59,50.5-7.4c72.03-21.67,124.5-88.51,124.5-167.6C762.5,102.85,684.15,24.5,587.5,24.5z M587,274
	c-41.42,0-75-33.58-75-75c0-41.42,33.58-75,75-75s75,33.58,75,75C662,240.42,628.42,274,587,274z"/>
<rect x="538" y="275" width="100" height="500"/>
<path d="M638,775c0,110.46-89.54,200-200,200s-200-89.54-200-200h100c0,55.23,44.77,100,100,100s100-44.77,100-100H638z"/>
<polygon points="413,775 238,775 238,600 "/>
</svg>
